<svg xmlns="http://www.w3.org/2000/svg" width="1600" height="1200" viewBox="0 0 1600 1200">
  <!-- Pastel instrument line art tiled behind the family-facing pages (see
       body.instrument-bg in styles.css). Soft washed-out strokes from the
       portal's pastel palette so it stays background texture, never content.
       The band: piano (keys and a grand), guitars, microphone, violin,
       viola, cello, double bass — and a few stray notes between them. -->
  <defs>
    <!-- Violin family: body, neck, scroll, f-holes. Reused at different
         sizes for violin, viola, cello and (with its own shape) not the
         bass, which slopes differently. -->
    <g id="fiddle" fill="none">
      <path d="M 0,2 C 20,0 34,10 33,24 C 32,38 20,44 19,57 C 18,70 30,76 36,88 C 42,100 44,124 0,134 C -44,124 -42,100 -36,88 C -30,76 -18,70 -19,57 C -20,44 -32,38 -33,24 C -34,10 -20,0 0,2 Z"/>
      <path d="M -4,2 L -4,-38 M 4,2 L 4,-38"/>
      <path d="M -4,-38 C -7,-48 -4,-54 0,-56 C 6,-59 10,-53 6,-49 C 3,-46 0,-49 2,-52"/>
      <path d="M 11,62 C 15,70 7,80 11,90 M -11,62 C -15,70 -7,80 -11,90"/>
    </g>
    <g id="guitar" fill="none">
      <path d="M 0,0 C 18,0 28,10 28,24 C 28,36 21,40 21,48 C 21,58 34,64 34,80 C 34,98 18,106 0,106 C -18,106 -34,98 -34,80 C -34,64 -21,58 -21,48 C -21,40 -28,36 -28,24 C -28,10 -18,0 0,0 Z"/>
      <circle cx="0" cy="52" r="11"/>
      <path d="M -11,84 L 11,84"/>
      <path d="M -3.5,0 L -3.5,-48 M 3.5,0 L 3.5,-48"/>
      <path d="M -3.5,-48 L -6,-50 L -6,-68 L 6,-68 L 6,-50 L 3.5,-48"/>
    </g>
    <g id="mic" fill="none">
      <circle cx="0" cy="0" r="16"/>
      <path d="M -15.2,-5 L 15.2,-5 M -15.2,5 L 15.2,5"/>
      <path d="M -11.6,11 L 11.6,11"/>
      <path d="M -10.5,12 L -6,54 C -6,60 6,60 6,54 L 10.5,12"/>
    </g>
    <!-- Beamed pair of eighth notes -->
    <g id="notes2">
      <ellipse cx="0" cy="34" rx="7" ry="5.5" transform="rotate(-18 0 34)"/>
      <ellipse cx="34" cy="28" rx="7" ry="5.5" transform="rotate(-18 34 28)"/>
      <path fill="none" d="M 6.5,32 L 6.5,-4 M 40.5,26 L 40.5,-10"/>
      <path fill="none" d="M 6.5,-4 L 40.5,-10 M 6.5,4 L 40.5,-2"/>
    </g>
    <!-- Single eighth note with a flag -->
    <g id="note1">
      <ellipse cx="0" cy="30" rx="7" ry="5.5" transform="rotate(-18 0 30)"/>
      <path fill="none" d="M 6.5,28 L 6.5,-10 C 16,-6 18,4 13,12"/>
    </g>
  </defs>

  <g stroke-width="2.5" stroke-linecap="round" stroke-linejoin="round" fill="none">

    <!-- Acoustic guitar — soft blue -->
    <use href="#guitar" stroke="#c5d7f2" transform="translate(200,240) rotate(-20) scale(1.15)"/>

    <!-- Violin — rose -->
    <use href="#fiddle" stroke="#f0cede" transform="translate(560,170) rotate(12) scale(0.85)"/>

    <!-- Piano keyboard — grey -->
    <g transform="translate(920,150) rotate(-6) scale(1.15)" stroke="#dde1e8" stroke-width="2.3">
      <rect x="0" y="0" width="120" height="36" rx="3"/>
      <path d="M 12,0 L 12,36 M 24,0 L 24,36 M 36,0 L 36,36 M 48,0 L 48,36 M 60,0 L 60,36 M 72,0 L 72,36 M 84,0 L 84,36 M 96,0 L 96,36 M 108,0 L 108,36"/>
      <g fill="#dde1e8" stroke="none">
        <rect x="8.5" y="0" width="7" height="21"/>
        <rect x="20.5" y="0" width="7" height="21"/>
        <rect x="44.5" y="0" width="7" height="21"/>
        <rect x="56.5" y="0" width="7" height="21"/>
        <rect x="68.5" y="0" width="7" height="21"/>
        <rect x="92.5" y="0" width="7" height="21"/>
        <rect x="104.5" y="0" width="7" height="21"/>
      </g>
    </g>

    <!-- Grand piano, seen from above: straight bass-side spine on the left,
         concave bent side sweeping to the rounded tail — lavender -->
    <g transform="translate(1330,300) rotate(10) scale(1.2)" stroke="#d8cdf0">
      <path d="M -48,55 L 48,55 L 48,30 C 48,12 40,2 28,-4 C 40,-14 44,-32 34,-46 C 24,-60 0,-64 -16,-56 C -36,-46 -48,-28 -48,-8 Z"/>
      <path d="M -48,44 L 48,44"/>
      <path d="M -40,44 L -40,55 M -32,44 L -32,55 M -24,44 L -24,55 M -16,44 L -16,55 M -8,44 L -8,55 M 0,44 L 0,55 M 8,44 L 8,55 M 16,44 L 16,55 M 24,44 L 24,55 M 32,44 L 32,55 M 40,44 L 40,55"/>
    </g>

    <!-- Beamed notes — amber -->
    <g fill="#f0dfae" stroke="#f0dfae" transform="translate(760,360) rotate(-8)">
      <use href="#notes2"/>
    </g>

    <!-- Microphone — sage green -->
    <use href="#mic" stroke="#c8e3d2" stroke-width="2.2" transform="translate(430,610) rotate(22) scale(1.25)"/>

    <!-- Viola — soft blue -->
    <use href="#fiddle" stroke="#c5d7f2" transform="translate(920,620) rotate(-14)"/>

    <!-- Single note — lavender -->
    <g fill="#d8cdf0" stroke="#d8cdf0" transform="translate(640,860) rotate(14)">
      <use href="#note1"/>
    </g>

    <!-- Cello — coral -->
    <g stroke="#f2cfbd" stroke-width="2" transform="translate(1230,780) rotate(8) scale(1.35)">
      <use href="#fiddle"/>
      <path d="M 0,134 L 0,156"/>
    </g>

    <!-- Double bass: sloped shoulders, longer neck, endpin — sage green -->
    <g transform="translate(180,900) rotate(-6) scale(1.45)" stroke="#c8e3d2" stroke-width="1.9">
      <path d="M 0,4 C 14,2 24,12 25,28 C 26,44 20,50 19,62 C 18,76 32,82 38,96 C 46,112 44,138 0,148 C -44,138 -46,112 -38,96 C -32,82 -18,76 -19,62 C -20,50 -26,44 -25,28 C -24,12 -14,2 0,4 Z"/>
      <path d="M -4,4 L -4,-52 M 4,4 L 4,-52"/>
      <path d="M -4,-52 C -7,-62 -3,-68 1,-70 C 7,-72 10,-66 6,-62 C 3,-59 0,-62 2,-65"/>
      <path d="M 11,70 C 15,78 7,88 11,98 M -11,70 C -15,78 -7,88 -11,98"/>
      <path d="M 0,148 L 0,164"/>
    </g>

    <!-- Beamed notes — rose -->
    <g fill="#f0cede" stroke="#f0cede" transform="translate(1080,1060) rotate(10)">
      <use href="#notes2"/>
    </g>

    <!-- Second guitar, smaller — amber -->
    <use href="#guitar" stroke="#f0dfae" transform="translate(1460,1040) rotate(18) scale(0.9)"/>

    <!-- Single note — soft blue -->
    <g fill="#c5d7f2" stroke="#c5d7f2" transform="translate(370,1120) rotate(-12) scale(0.9)">
      <use href="#note1"/>
    </g>

    <!-- Second microphone, small — coral -->
    <use href="#mic" stroke="#f2cfbd" stroke-width="2.4" transform="translate(1250,470) rotate(-28) scale(0.95)"/>

  </g>
</svg>
